<svg width="728" height="98" viewBox="0 0 728 98" fill="none" xmlns="http://www.w3.org/2000/svg">
<path d="M15.6 96H0.52L35.1 3.05H50.57L85.41 96H69.81L62.14 73.64H23.27L15.6 96ZM42.64 16.31L27.56 61.55H58.11L42.9 16.31H42.64ZM125.21 27.75C137.43 27.75 147.31 34.77 147.31 49.98V96H134.57V53.49C134.57 44.65 130.67 38.67 121.05 38.67C110.13 38.67 103.11 45.3 103.11 55.31V96H90.3703V29.7H103.11V38.02H103.37C106.88 32.95 113.77 27.75 125.21 27.75ZM217.633 96H202.553L180.843 62.07L171.223 71.3V96H158.483V3.05H171.223V57.78L200.213 29.7H214.903L189.423 54.01L217.633 96ZM233.898 17.87H219.468V4.09H233.898V17.87ZM232.988 96H220.248V29.7H232.988V96ZM269.129 86.25C271.339 86.25 272.379 86.12 274.589 85.73V96C271.339 96.65 269.259 96.78 266.529 96.78C255.609 96.78 248.979 92.62 248.979 77.28V40.23H239.359V29.7H248.979V8.38H261.719V29.7H274.459V40.23H261.719V77.67C261.719 84.69 263.669 86.25 269.129 86.25ZM300.791 97.82C287.531 97.82 279.081 90.15 279.081 78.84C279.081 64.02 290.261 59.6 306.771 56.48C317.171 54.53 323.541 53.23 323.541 46.73C323.541 41.92 320.681 37.89 310.931 37.89C299.361 37.89 295.851 41.53 295.201 50.37H282.201C282.851 37.63 291.171 27.62 311.451 27.62C325.101 27.62 336.021 33.34 336.021 50.5V80.92C336.021 85.73 336.671 88.2 339.141 88.2C339.531 88.2 339.921 88.2 340.701 88.07V95.87C338.491 96.39 336.281 96.65 334.201 96.65C327.831 96.65 324.451 94.18 323.671 86.64H323.411C319.121 93.53 311.581 97.82 300.791 97.82ZM303.651 87.55C315.091 87.55 323.541 81.7 323.541 70.13V60.64C321.461 62.59 315.741 64.02 308.981 65.45C297.281 67.79 292.341 71.04 292.341 77.93C292.341 84.17 295.721 87.55 303.651 87.55ZM477.103 69.09H347.103V57H477.103V69.09ZM509.765 97.856C503.153 97.856 497.005 94.608 492.597 89.852C490.509 87.648 489.349 87.648 488.769 90.664L487.841 96.116H485.289L485.405 62.592H487.957C488.769 81.268 497.701 93.912 509.765 93.912C520.785 93.912 525.425 84.864 525.425 76.976C525.425 65.144 516.145 57.952 506.401 50.528C495.845 42.524 485.985 34.868 485.985 21.76C485.985 9.46399 494.569 1.34399 506.981 1.34399C512.897 1.34399 517.305 3.08399 521.597 7.25999C523.453 8.99999 525.077 8.536 525.309 6.1L525.773 2.50399H528.209L529.717 32.664H527.281C525.773 17.004 519.393 5.28799 506.981 5.28799C497.585 5.28799 492.481 12.248 492.481 20.368C492.481 30.692 500.369 37.188 510.229 44.612C521.249 52.848 531.805 60.968 531.805 75.468C531.805 88.112 523.221 97.856 509.765 97.856ZM579.198 83.704H581.634C581.518 91.592 579.546 97.856 573.282 97.856C568.062 97.856 565.046 93.68 565.046 85.096V80.456C561.914 91.94 555.998 97.856 548.458 97.856C540.802 97.856 536.626 91.708 536.626 84.4C536.626 70.016 552.286 63.288 565.046 57.14V50.528C565.046 40.436 561.334 36.84 555.186 36.84C550.198 36.84 546.37 39.276 546.37 43.568C546.37 46.352 547.994 47.396 547.994 49.832C547.994 52.268 546.602 53.892 544.05 53.892C540.918 53.892 539.294 51.224 539.294 47.512C539.294 39.392 546.602 32.896 556.346 32.896C565.046 32.896 571.426 38.116 571.426 50.412V86.024C571.426 92.404 572.934 93.796 574.79 93.796C577.226 93.796 579.082 91.476 579.198 83.704ZM550.43 91.94C555.65 91.94 561.45 86.952 565.046 74.308V60.504C554.606 66.072 543.354 71.756 543.354 82.776C543.354 87.996 545.674 91.94 550.43 91.94ZM595.78 47.976V84.864C595.78 92.056 596.592 93.564 603.088 93.564V96H581.86V93.564C588.472 93.564 589.4 92.056 589.4 84.864L589.284 14.22C589.284 7.028 589.516 5.75199 582.788 8.88399L581.744 6.68L590.444 2.61999L594.62 0.763995L595.78 2.03999V44.032H596.128C601.116 37.536 605.756 33.012 612.716 33.012C620.952 33.012 624.316 39.276 624.316 48.672V84.864C624.316 92.056 625.128 93.564 631.856 93.564V96H610.744V93.564C617.24 93.564 618.052 92.056 618.052 84.864V49.02C618.052 41.944 615.036 38.812 610.396 38.812C604.828 38.812 600.304 42.64 595.78 47.976ZM656.322 97.856C643.446 97.856 634.514 83.936 634.514 65.724C634.514 47.744 642.402 33.012 656.322 33.012C669.082 33.012 678.014 46.932 678.014 65.144C678.014 83.124 670.126 97.856 656.322 97.856ZM657.83 93.796C667.226 93.796 671.286 81.848 671.286 70.132C671.286 54.356 665.834 37.072 654.814 37.072C645.302 37.072 641.242 49.02 641.242 60.852C641.242 76.628 646.694 93.796 657.83 93.796ZM705.998 97.856C693.122 97.856 684.19 83.936 684.19 65.724C684.19 47.744 692.078 33.012 705.998 33.012C718.758 33.012 727.69 46.932 727.69 65.144C727.69 83.124 719.802 97.856 705.998 97.856ZM707.506 93.796C716.902 93.796 720.962 81.848 720.962 70.132C720.962 54.356 715.51 37.072 704.49 37.072C694.978 37.072 690.918 49.02 690.918 60.852C690.918 76.628 696.37 93.796 707.506 93.796Z" fill="white"/>
</svg>
